<?xml version="1.0" encoding="UTF-8" standalone="no"?>
<!-- Created with Inkscape (http://www.inkscape.org/) -->

<svg
   xmlns:dc="http://purl.org/dc/elements/1.1/"
   xmlns:cc="http://creativecommons.org/ns#"
   xmlns:rdf="http://www.w3.org/1999/02/22-rdf-syntax-ns#"
   xmlns:svg="http://www.w3.org/2000/svg"
   xmlns="http://www.w3.org/2000/svg"
   xmlns:sodipodi="http://sodipodi.sourceforge.net/DTD/sodipodi-0.dtd"
   xmlns:inkscape="http://www.inkscape.org/namespaces/inkscape"
   sodipodi:docname="made_with_ada_template.svg"
   inkscape:version="0.48.3.1 r9886"
   version="1.1"
   id="svg2"
   height="141.73228"
   width="141.73228">
  <sodipodi:namedview
     id="base"
     pagecolor="#ffffff"
     bordercolor="#666666"
     borderopacity="1.0"
     inkscape:pageopacity="0.0"
     inkscape:pageshadow="2"
     inkscape:zoom="4"
     inkscape:cx="134.84347"
     inkscape:cy="34.805747"
     inkscape:document-units="px"
     inkscape:current-layer="layer1"
     showgrid="false"
     units="mm"
     fit-margin-top="0"
     fit-margin-left="0"
     fit-margin-right="0"
     fit-margin-bottom="0"
     inkscape:window-width="1920"
     inkscape:window-height="1064"
     inkscape:window-x="0"
     inkscape:window-y="0"
     inkscape:window-maximized="0" />
  <defs
     id="defs4" />
  <metadata
     id="metadata7">
    <rdf:RDF>
      <cc:Work
         rdf:about="">
        <dc:format>image/svg+xml</dc:format>
        <dc:type
           rdf:resource="http://purl.org/dc/dcmitype/StillImage" />
        <dc:title />
      </cc:Work>
    </rdf:RDF>
  </metadata>
  <g
     inkscape:label="Layer 1"
     inkscape:groupmode="layer"
     id="layer1"
     transform="translate(0,-910.62991)">
    <text
       xml:space="preserve"
       style="font-size:28px;font-style:normal;font-weight:normal;text-align:center;line-height:125%;letter-spacing:0px;word-spacing:0px;text-anchor:middle;fill:#000000;fill-opacity:1;stroke:none;font-family:Sans"
       x="71.567383"
       y="948.73718"
       id="text7187"
       sodipodi:linespacing="125%"><tspan
         sodipodi:role="line"
         id="tspan7189"
         x="71.567383"
         y="948.73718">Made</tspan><tspan
         sodipodi:role="line"
         x="71.567383"
         y="983.73718"
         id="tspan7191">with</tspan><tspan
         sodipodi:role="line"
         x="71.567383"
         y="1018.7372"
         id="tspan7193">Ada</tspan></text>
    <g
       gcodetools="Gcodetools tool definition"
       transform="translate(-102.85918,1133.2539)"
       id="g3028">
      <path
         inkscape:connector-curvature="0"
         style="fill:#00ff00;fill-opacity:0.5;stroke:#444444;stroke-width:1px"
         gcodetools="Gcodetools tool background"
         d="m -20,-20 400,0 0,175 -400,0 z"
         id="path3030" />
      <g
         gcodetools="Gcodetools tool parameter"
         id="g3032">
        <text
           y="0"
           x="0"
           style="font-size:20px;font-style:normal;font-variant:normal;font-weight:normal;font-stretch:normal;fill:#000000;fill-opacity:1;stroke:none;font-family:DejaVu Sans"
           xml:space="preserve"
           gcodetools="Gcodetools tool definition field name"
           id="text3034"><tspan
             y="0"
             x="0"
             sodipodi:role="line"
             id="tspan3036">name</tspan></text>
        <text
           y="0"
           x="150"
           style="font-size:20px;font-style:normal;font-variant:normal;font-weight:normal;font-stretch:normal;fill:#000000;fill-opacity:1;stroke:none;font-family:DejaVu Sans"
           xml:space="preserve"
           gcodetools="Gcodetools tool definition field value"
           id="text3038"><tspan
             y="0"
             x="150"
             sodipodi:role="line"
             id="tspan3040">Cylindrical cutter</tspan></text>
      </g>
      <g
         gcodetools="Gcodetools tool parameter"
         id="g3042">
        <text
           y="20"
           x="0"
           style="font-size:10px;font-style:normal;font-variant:normal;font-weight:normal;font-stretch:normal;fill:#000000;fill-opacity:1;stroke:none;font-family:DejaVu Sans"
           xml:space="preserve"
           gcodetools="Gcodetools tool definition field name"
           id="text3044"><tspan
             y="20"
             x="0"
             sodipodi:role="line"
             id="tspan3046">id</tspan></text>
        <text
           y="20"
           x="150"
           style="font-size:10px;font-style:normal;font-variant:normal;font-weight:normal;font-stretch:normal;fill:#000000;fill-opacity:1;stroke:none;font-family:DejaVu Sans"
           xml:space="preserve"
           gcodetools="Gcodetools tool definition field value"
           id="text3048"><tspan
             y="20"
             x="150"
             sodipodi:role="line"
             id="tspan3050">Cylindrical cutter 0001</tspan></text>
      </g>
      <g
         gcodetools="Gcodetools tool parameter"
         id="g3052">
        <text
           y="35"
           x="0"
           style="font-size:10px;font-style:normal;font-variant:normal;font-weight:normal;font-stretch:normal;fill:#000000;fill-opacity:1;stroke:none;font-family:DejaVu Sans"
           xml:space="preserve"
           gcodetools="Gcodetools tool definition field name"
           id="text3054"><tspan
             y="35"
             x="0"
             sodipodi:role="line"
             id="tspan3056">diameter</tspan></text>
        <text
           y="35"
           x="150"
           style="font-size:10px;font-style:normal;font-variant:normal;font-weight:normal;font-stretch:normal;fill:#000000;fill-opacity:1;stroke:none;font-family:DejaVu Sans"
           xml:space="preserve"
           gcodetools="Gcodetools tool definition field value"
           id="text3058"><tspan
             y="35"
             x="150"
             sodipodi:role="line"
             id="tspan3060">0</tspan><tspan
             y="47.5"
             x="150"
             sodipodi:role="line"
             id="tspan4168" /><tspan
             id="tspan3157"
             y="60"
             x="150"
             sodipodi:role="line" /></text>
      </g>
      <g
         gcodetools="Gcodetools tool parameter"
         id="g3062">
        <text
           y="50"
           x="0"
           style="font-size:10px;font-style:normal;font-variant:normal;font-weight:normal;font-stretch:normal;fill:#000000;fill-opacity:1;stroke:none;font-family:DejaVu Sans"
           xml:space="preserve"
           gcodetools="Gcodetools tool definition field name"
           id="text3064"><tspan
             y="50"
             x="0"
             sodipodi:role="line"
             id="tspan3066">feed</tspan></text>
        <text
           y="50"
           x="150"
           style="font-size:10px;font-style:normal;font-variant:normal;font-weight:normal;font-stretch:normal;fill:#000000;fill-opacity:1;stroke:none;font-family:DejaVu Sans"
           xml:space="preserve"
           gcodetools="Gcodetools tool definition field value"
           id="text3068"><tspan
             y="50"
             x="150"
             sodipodi:role="line"
             id="tspan3070">400</tspan></text>
      </g>
      <g
         gcodetools="Gcodetools tool parameter"
         id="g3072">
        <text
           y="65"
           x="0"
           style="font-size:10px;font-style:normal;font-variant:normal;font-weight:normal;font-stretch:normal;fill:#000000;fill-opacity:1;stroke:none;font-family:DejaVu Sans"
           xml:space="preserve"
           gcodetools="Gcodetools tool definition field name"
           id="text3074"><tspan
             y="65"
             x="0"
             sodipodi:role="line"
             id="tspan3076">penetration angle</tspan></text>
        <text
           y="65"
           x="150"
           style="font-size:10px;font-style:normal;font-variant:normal;font-weight:normal;font-stretch:normal;fill:#000000;fill-opacity:1;stroke:none;font-family:DejaVu Sans"
           xml:space="preserve"
           gcodetools="Gcodetools tool definition field value"
           id="text3078"><tspan
             y="65"
             x="150"
             sodipodi:role="line"
             id="tspan3080">90</tspan></text>
      </g>
      <g
         gcodetools="Gcodetools tool parameter"
         id="g3082">
        <text
           y="80"
           x="0"
           style="font-size:10px;font-style:normal;font-variant:normal;font-weight:normal;font-stretch:normal;fill:#000000;fill-opacity:1;stroke:none;font-family:DejaVu Sans"
           xml:space="preserve"
           gcodetools="Gcodetools tool definition field name"
           id="text3084"><tspan
             y="80"
             x="0"
             sodipodi:role="line"
             id="tspan3086">penetration feed</tspan></text>
        <text
           y="80"
           x="150"
           style="font-size:10px;font-style:normal;font-variant:normal;font-weight:normal;font-stretch:normal;fill:#000000;fill-opacity:1;stroke:none;font-family:DejaVu Sans"
           xml:space="preserve"
           gcodetools="Gcodetools tool definition field value"
           id="text3088"><tspan
             y="80"
             x="150"
             sodipodi:role="line"
             id="tspan3090">100</tspan></text>
      </g>
      <g
         gcodetools="Gcodetools tool parameter"
         id="g3092">
        <text
           y="95"
           x="0"
           style="font-size:10px;font-style:normal;font-variant:normal;font-weight:normal;font-stretch:normal;fill:#000000;fill-opacity:1;stroke:none;font-family:DejaVu Sans"
           xml:space="preserve"
           gcodetools="Gcodetools tool definition field name"
           id="text3094"><tspan
             y="95"
             x="0"
             sodipodi:role="line"
             id="tspan3096">depth step</tspan></text>
        <text
           y="95"
           x="150"
           style="font-size:10px;font-style:normal;font-variant:normal;font-weight:normal;font-stretch:normal;fill:#000000;fill-opacity:1;stroke:none;font-family:DejaVu Sans"
           xml:space="preserve"
           gcodetools="Gcodetools tool definition field value"
           id="text3098"><tspan
             y="95"
             x="150"
             sodipodi:role="line"
             id="tspan3100">1</tspan></text>
      </g>
      <g
         gcodetools="Gcodetools tool parameter"
         id="g3102">
        <text
           y="110"
           x="0"
           style="font-size:10px;font-style:normal;font-variant:normal;font-weight:normal;font-stretch:normal;fill:#000000;fill-opacity:1;stroke:none;font-family:DejaVu Sans"
           xml:space="preserve"
           gcodetools="Gcodetools tool definition field name"
           id="text3104"><tspan
             y="110"
             x="0"
             sodipodi:role="line"
             id="tspan3106">tool change gcode</tspan></text>
        <text
           y="110"
           x="150"
           style="font-size:10px;font-style:normal;font-variant:normal;font-weight:normal;font-stretch:normal;fill:#000000;fill-opacity:1;stroke:none;font-family:DejaVu Sans"
           xml:space="preserve"
           gcodetools="Gcodetools tool definition field value"
           id="text3108"><tspan
             y="110"
             x="150"
             sodipodi:role="line"
             id="tspan3110">(None)</tspan></text>
      </g>
    </g>
    <g
       id="g3207"
       gcodetools="Gcodetools orientation group"
       transform="matrix(1.000000,0.000000,0.000000,1.000000,0.000000,910.629910)">
      <g
         id="g3209"
         gcodetools="Gcodetools orientation point (2 points)">
        <path
           id="path3211"
           gcodetools="Gcodetools orientation point arrow"
           d="m 0.0,141.73228 2.9375,-6.343750000001 0.8125,1.90625 6.843748640396,-6.84374864039 0,0 0.6875,0.6875 -6.84375,6.84375 1.90625,0.812500000001 z z"
           style="stroke:none;fill:#000000;" />
        <text
           id="text3213"
           gcodetools="Gcodetools orientation point text"
           xml:space="preserve"
           style="font-family:DejaVu Sans;font-style:normal;font-variant:normal;font-weight:normal;font-stretch:normal;font-family:DejaVu Sans;fill:#000000;fill-opacity:1;stroke:none;font-size:10.000000px;"
           x="10.0"
           y="131.73228"><tspan
             id="tspan3215"
             sodipodi:role="line"
             x="10.0"
             y="131.73228">(0.0; 0.0; 0.0)</tspan></text>
      </g>
      <g
         id="g3217"
         gcodetools="Gcodetools orientation point (2 points)">
        <path
           id="path3219"
           gcodetools="Gcodetools orientation point arrow"
           d="m 354.3307066,141.73228 2.9375,-6.343750000001 0.8125,1.90625 6.843748640396,-6.84374864039 0,0 0.6875,0.6875 -6.84375,6.84375 1.90625,0.812500000001 z z"
           style="stroke:none;fill:#000000;" />
        <text
           id="text3221"
           gcodetools="Gcodetools orientation point text"
           xml:space="preserve"
           style="font-family:DejaVu Sans;font-style:normal;font-variant:normal;font-weight:normal;font-stretch:normal;font-family:DejaVu Sans;fill:#000000;fill-opacity:1;stroke:none;font-size:10.000000px;"
           x="364.3307066"
           y="131.73228"><tspan
             id="tspan3223"
             sodipodi:role="line"
             x="364.3307066"
             y="131.73228">(100.0; 0.0; -1.0)</tspan></text>
      </g>
    </g>
    <g
       id="g3854" />
    <path
       style="font-size:medium;font-style:normal;font-variant:normal;font-weight:normal;font-stretch:normal;text-indent:0;text-align:start;text-decoration:none;line-height:normal;letter-spacing:normal;word-spacing:normal;text-transform:none;direction:ltr;block-progression:tb;writing-mode:lr-tb;text-anchor:start;baseline-shift:baseline;color:#000000;fill:#000000;fill-opacity:1;stroke:none;stroke-width:1px;marker:none;visibility:visible;display:inline;overflow:visible;enable-background:accumulate;font-family:Sans;-inkscape-font-specification:Sans"
       d="m 19.84375,934.21875 c -0.527437,0.0527 -1.042325,0.23885 -1.53125,0.5625 -0.977851,0.64731 -1.755844,1.87427 -2.1875,3.875 -0.4948,2.29341 -0.106493,5.52411 0.59375,9.21875 0.700243,3.69464 1.756792,7.8348 2.625,11.75 0.868208,3.9152 1.565932,7.61798 1.625,10.4375 0.02953,1.40976 -0.117081,2.58585 -0.4375,3.4375 -0.320419,0.85165 -0.786314,1.35585 -1.5,1.59375 -1.877685,0.6259 -3.027602,0.89442 -4,1.09375 -0.04648,8.2e-4 -0.142468,-0.001 -0.1875,0 -0.552232,0.0148 -0.981262,0.0405 -1.3125,0.0937 -0.165619,0.0266 -0.289088,0.0607 -0.40625,0.0937 -0.117162,0.0331 -0.215596,0.0288 -0.375,0.15625 -0.03985,0.0318 -0.07532,0.0971 -0.125,0.1875 -0.04968,0.0904 -0.105215,0.23114 -0.0625,0.375 0.08543,0.28773 0.293479,0.3475 0.375,0.375 0.163043,0.055 0.243979,0.0322 0.375,0.0312 0.262042,-0.002 0.609445,-0.0358 1.125,-0.125 0.130777,-0.0226 0.475535,-0.12655 0.625,-0.15625 1.021491,-0.0173 2.392681,0.017 4.15625,0.34375 0.711762,0.13186 1.252547,0.49741 1.6875,1.125 0.434953,0.62759 0.736082,1.52775 0.9375,2.625 0.402837,2.1945 0.337225,5.1698 0,8.375 -0.67445,6.41039 -2.345115,13.726 -3.03125,17.8437 -0.529343,3.1769 -0.414452,5.1855 0.15625,6.5 0.570702,1.3146 1.679594,1.8366 2.75,1.8126 1.070406,-0.024 2.107182,-0.4492 2.90625,-0.875 0.799068,-0.4259 1.375,-0.8751 1.375,-0.875 l -0.59375,-0.7813 c 0,0 -0.522244,0.3622 -1.25,0.75 -0.727756,0.3878 -1.677204,0.7635 -2.46875,0.7813 -0.791546,0.018 -1.377821,-0.1863 -1.8125,-1.1876 -0.434679,-1.0012 -0.607294,-2.8867 -0.09375,-5.9687 0.673821,-4.0438 2.37821,-11.37108 3.0625,-17.875 0.342145,-3.25196 0.43546,-6.31528 0,-8.6875 -0.21773,-1.18611 -0.571718,-2.20167 -1.125,-3 -0.553282,-0.79833 -1.340493,-1.35117 -2.3125,-1.53125 -0.640949,-0.11874 -0.975883,-0.0612 -1.53125,-0.125 0.563802,-0.16488 0.788076,-0.17936 1.46875,-0.40625 1.019039,-0.33968 1.732314,-1.14377 2.125,-2.1875 0.392686,-1.04373 0.531062,-2.36106 0.5,-3.84375 -0.06212,-2.96537 -0.783989,-6.69152 -1.65625,-10.625 -0.872261,-3.93348 -1.901609,-8.06686 -2.59375,-11.71875 -0.692141,-3.65189 -1.022015,-6.85874 -0.59375,-8.84375 0.398341,-1.84632 1.058471,-2.79223 1.75,-3.25 0.691529,-0.45777 1.461075,-0.48511 2.28125,-0.28125 1.64035,0.40771 3.21875,1.78125 3.21875,1.78125 l 0.65625,-0.75 c 0,0 -1.643668,-1.50754 -3.625,-2 -0.495333,-0.12312 -1.035063,-0.17767 -1.5625,-0.125 z"
       id="path3687"
       inkscape:connector-curvature="0" />
    <path
       style="font-size:medium;font-style:normal;font-variant:normal;font-weight:normal;font-stretch:normal;text-indent:0;text-align:start;text-decoration:none;line-height:normal;letter-spacing:normal;word-spacing:normal;text-transform:none;direction:ltr;block-progression:tb;writing-mode:lr-tb;text-anchor:start;baseline-shift:baseline;color:#000000;fill:#000000;fill-opacity:1;stroke:none;stroke-width:1px;marker:none;visibility:visible;display:inline;overflow:visible;enable-background:accumulate;font-family:Sans;-inkscape-font-specification:Sans"
       d="m 122.21875,934.5 c -0.52744,-0.0527 -1.06717,0.002 -1.5625,0.125 -1.98133,0.49246 -3.625,1.96875 -3.625,1.96875 l 0.65625,0.75 c 0,0 1.5784,-1.34229 3.21875,-1.75 0.82017,-0.20386 1.58972,-0.17652 2.28125,0.28125 0.69153,0.45777 1.35166,1.40368 1.75,3.25 0.42826,1.98501 0.0984,5.19186 -0.59375,8.84375 -0.69214,3.65189 -1.72149,7.75402 -2.59375,11.6875 -0.87226,3.93348 -1.59413,7.69088 -1.65625,10.65625 -0.0311,1.48269 0.10731,2.76877 0.5,3.8125 0.39269,1.04373 1.07471,1.84782 2.09375,2.1875 l 0.0312,0 c 0.66488,0.22111 0.88487,0.24463 1.4375,0.40625 -0.54901,0.0635 -0.86774,0.008 -1.5,0.125 -0.97201,0.18008 -1.75922,0.73292 -2.3125,1.53125 -0.55328,0.79833 -0.90727,1.84514 -1.125,3.03125 -0.43546,2.37222 -0.34214,5.40429 0,8.65625 0.68429,6.50391 2.38869,13.8312 3.0625,17.875 0.51355,3.082 0.34093,4.9675 -0.0937,5.9687 -0.43468,1.0013 -1.05221,1.2366 -1.84375,1.2188 -0.79154,-0.018 -1.74099,-0.3934 -2.46875,-0.7812 -0.72776,-0.3879 -1.21875,-0.7813 -1.21875,-0.7813 l -0.59375,0.8125 c 0,0 0.54468,0.4179 1.34375,0.8438 0.79907,0.4258 1.86709,0.8822 2.9375,0.9062 1.07041,0.024 2.1793,-0.498 2.75,-1.8125 0.5707,-1.3145 0.68559,-3.3544 0.15625,-6.5313 -0.68612,-4.1177 -2.3568,-11.40206 -3.03125,-17.81245 -0.33722,-3.20519 -0.43409,-6.21175 -0.0312,-8.40625 0.20142,-1.09725 0.5338,-1.96616 0.96875,-2.59375 0.43495,-0.62759 0.94449,-0.99314 1.65625,-1.125 1.75109,-0.32441 3.13629,-0.39077 4.15625,-0.375 0.14947,0.0297 0.49422,0.13361 0.625,0.15625 0.51556,0.0892 0.89421,0.12311 1.15625,0.125 0.13102,9.4e-4 0.21196,0.0237 0.375,-0.0312 0.0815,-0.0275 0.28957,-0.056 0.375,-0.34375 0.0427,-0.14386 -0.0128,-0.31588 -0.0625,-0.40625 -0.0497,-0.0904 -0.0851,-0.1244 -0.125,-0.15625 -0.1594,-0.12741 -0.25784,-0.15445 -0.375,-0.1875 -0.11716,-0.0331 -0.24063,-0.0359 -0.40625,-0.0625 -0.33124,-0.0533 -0.79152,-0.11023 -1.34375,-0.125 -0.0378,-0.001 -0.11745,7.4e-4 -0.15625,0 -0.97237,-0.19937 -2.12287,-0.43679 -4,-1.0625 -0.71369,-0.2379 -1.17958,-0.7421 -1.5,-1.59375 -0.32042,-0.85165 -0.46703,-2.05899 -0.4375,-3.46875 0.0591,-2.81952 0.75679,-6.5223 1.625,-10.4375 0.86821,-3.9152 1.89351,-8.02411 2.59375,-11.71875 0.70024,-3.69464 1.1198,-6.95659 0.625,-9.25 -0.43166,-2.00073 -1.20965,-3.22769 -2.1875,-3.875 -0.48893,-0.32365 -1.00381,-0.47858 -1.53125,-0.53125 z"
       id="path3687-7"
       inkscape:connector-curvature="0" />
    <g
       id="g3811" />
  </g>
  <defs
     id="defs3876">
    <marker
       refY="-1.687441"
       refX="-4"
       style="overflow:visible"
       id="CheckToolsAndOPMarker"
       orient="auto">
      <path
         style="fill:#000044; fill-rule:evenodd;stroke:none;"
         d=" m -4.588864,-1.687441 0.0,0.0 L -9.177728,0.0 c 0.73311,-0.996261 0.728882,-2.359329 0.0,-3.374882"
         id="path4749" />
    </marker>
  </defs>
  <defs
     id="defs3881">
    <marker
       refY="-1.687441"
       refX="-4"
       style="overflow:visible"
       id="DrawCurveMarker"
       orient="auto">
      <path
         style="fill:#000044; fill-rule:evenodd;stroke:none;"
         d="m -4.588864,-1.687441 0.0,0.0 L -9.177728,0.0 c 0.73311,-0.996261 0.728882,-2.359329 0.0,-3.374882"
         id="path3884" />
    </marker>
  </defs>
  <defs
     id="defs3886">
    <marker
       refY="-1.687441"
       refX="4"
       style="overflow:visible"
       id="DrawCurveMarker_r"
       orient="auto">
      <path
         style="fill:#000044; fill-rule:evenodd;stroke:none;"
         d="m 4.588864,-1.687441 0.0,0.0 L 9.177728,0.0 c -0.73311,-0.996261 -0.728882,-2.359329 0.0,-3.374882"
         id="path4756" />
    </marker>
  </defs>
  <defs
     id="defs3891">
    <marker
       refY="-1.687441"
       refX="-4"
       style="overflow:visible"
       id="InOutPathMarker"
       orient="auto">
      <path
         style="fill:#0072a7; fill-rule:evenodd;stroke:none;"
         d="m -4.588864,-1.687441 0.0,0.0 L -9.177728,0.0 c 0.73311,-0.996261 0.728882,-2.359329 0.0,-3.374882"
         id="path3894" />
    </marker>
  </defs>
  <g
     id="g4076" />
  <g
     id="g6802" />
</svg>
